<?xml version="1.0" encoding="UTF-8" standalone="no"?>
<svg
   width="16"
   height="16"
   fill="currentColor"
   class="bi bi-calendar2-heart"
   viewBox="0 0 16 16"
   version="1.1"
   id="svg942"
   sodipodi:docname="calendar2-heart.svg"
   inkscape:version="1.2.2 (b0a8486, 2022-12-01)"
   xmlns:inkscape="http://www.inkscape.org/namespaces/inkscape"
   xmlns:sodipodi="http://sodipodi.sourceforge.net/DTD/sodipodi-0.dtd"
   xmlns="http://www.w3.org/2000/svg"
   xmlns:svg="http://www.w3.org/2000/svg">
  <defs
     id="defs946" />
  <sodipodi:namedview
     id="namedview944"
     pagecolor="#ffffff"
     bordercolor="#666666"
     borderopacity="1.0"
     inkscape:showpageshadow="2"
     inkscape:pageopacity="0.0"
     inkscape:pagecheckerboard="0"
     inkscape:deskcolor="#d1d1d1"
     showgrid="false"
     inkscape:zoom="26.5625"
     inkscape:cx="4.5176471"
     inkscape:cy="7.3976471"
     inkscape:window-width="1848"
     inkscape:window-height="1016"
     inkscape:window-x="72"
     inkscape:window-y="27"
     inkscape:window-maximized="1"
     inkscape:current-layer="svg942" />
  <path
     fill-rule="evenodd"
     d="M 4,0.5 C 4,-0.16666638 3,-0.16666638 3,0.5 V 1 H 2 C 0.8954305,1 0,1.8954305 0,3 v 11 c 0,1.104569 0.8954305,2 2,2 h 12 c 1.104569,0 2,-0.895431 2,-2 V 3 C 16,1.8954305 15.104569,1 14,1 H 13 V 0.5 c 0,-0.66666638 -1,-0.66666638 -1,0 V 1 H 4 Z M 1,3 C 1,2.4477153 1.4477153,2 2,2 h 12 c 0.552285,0 1,0.4477153 1,1 v 11 c 0,0.552285 -0.447715,1 -1,1 H 2 C 1.4477153,15 1,14.552285 1,14 Z M 3,3.5 C 2.7238576,3.5 2.5,3.7238576 2.5,4 v 1 c 0,0.2761424 0.2238576,0.5 0.5,0.5 h 10 c 0.276142,0 0.5,-0.2238576 0.5,-0.5 V 4 C 13.5,3.7238576 13.276142,3.5 13,3.5 Z"
     id="path940"
     sodipodi:nodetypes="sscsssssssscssccsssssssssssssssssss" />
  <path
     d="m 6.0716495,13.702291 c -0.169578,0.08699 -0.362002,-0.06546 -0.327734,-0.260079 l 0.364637,-2.077997 -1.547734,-1.4743685 c -0.144537,-0.137947 -0.06941,-0.390119 0.124328,-0.417357 l 2.151804,-0.305769 0.959481,-1.9009496 c 0.08655,-0.1713359 0.320706,-0.1713359 0.407252,0 l 0.959482,1.9009496 2.1518025,0.305769 c 0.193741,0.02724 0.268866,0.27941 0.123889,0.417357 L 9.891562,11.364215 10.2562,13.442212 c 0.03427,0.19462 -0.158156,0.347065 -0.327735,0.260079 l -1.9290665,-0.991112 -1.928188,0.991112 z"
     id="path775"
     style="stroke-width:0.439323" />
</svg>
