<?xml version="1.0" encoding="UTF-8" standalone="no"?>
<svg
   width="16"
   height="16"
   fill="currentColor"
   class="bi bi-file-earmark-medical"
   viewBox="0 0 16 16"
   version="1.1"
   id="svg360"
   sodipodi:docname="file-earmark-medical.svg"
   inkscape:version="1.2.2 (b0a8486, 2022-12-01)"
   xmlns:inkscape="http://www.inkscape.org/namespaces/inkscape"
   xmlns:sodipodi="http://sodipodi.sourceforge.net/DTD/sodipodi-0.dtd"
   xmlns="http://www.w3.org/2000/svg"
   xmlns:svg="http://www.w3.org/2000/svg">
  <defs
     id="defs364" />
  <sodipodi:namedview
     id="namedview362"
     pagecolor="#ffffff"
     bordercolor="#666666"
     borderopacity="1.0"
     inkscape:showpageshadow="2"
     inkscape:pageopacity="0.0"
     inkscape:pagecheckerboard="0"
     inkscape:deskcolor="#d1d1d1"
     showgrid="false"
     inkscape:zoom="18.782524"
     inkscape:cx="1.1180606"
     inkscape:cy="12.165564"
     inkscape:window-width="1848"
     inkscape:window-height="1016"
     inkscape:window-x="72"
     inkscape:window-y="27"
     inkscape:window-maximized="1"
     inkscape:current-layer="svg360" />
  <path
     d="M7.5 5.5a.5.5 0 0 0-1 0v.634l-.549-.317a.5.5 0 1 0-.5.866L6 7l-.549.317a.5.5 0 1 0 .5.866l.549-.317V8.5a.5.5 0 1 0 1 0v-.634l.549.317a.5.5 0 1 0 .5-.866L8 7l.549-.317a.5.5 0 1 0-.5-.866l-.549.317V5.5zm-2 4.5a.5.5 0 0 0 0 1h5a.5.5 0 0 0 0-1h-5zm0 2a.5.5 0 0 0 0 1h5a.5.5 0 0 0 0-1h-5z"
     id="path356" />
  <path
     d="M14 14V4.5L9.5 0H4a2 2 0 0 0-2 2v12a2 2 0 0 0 2 2h8a2 2 0 0 0 2-2zM9.5 3A1.5 1.5 0 0 0 11 4.5h2V14a1 1 0 0 1-1 1H4a1 1 0 0 1-1-1V2a1 1 0 0 1 1-1h5.5v2z"
     id="path358" />
  <path
     d="m 12.338938,9.280139 a 4.1450285,4.1642263 0 1 0 -0.704021,1.050195 l -6.28e-4,1.22e-4 c 0.02366,0.0215 0.04831,0.04145 0.07536,0.06032 l 2.879166,1.949542 a 0.63782635,0.64078046 0 0 0 0.71334,-1.062459 L 12.422987,9.3283148 a 0.64216055,0.64513474 0 0 0 -0.08417,-0.048803 z M 12.031858,6.8312946 A 3.507333,3.5235773 0 1 1 5.1465413,8.178378 3.507332,3.5235763 0 0 1 12.031856,6.8312948 Z"
     id="path577"
     style="stroke-width:0.639172" />
</svg>
